<svg width="17" height="19" viewBox="0 0 17 19" fill="none" xmlns="http://www.w3.org/2000/svg">
<mask id="path-1-outside-1_0_1922" maskUnits="userSpaceOnUse" x="-0.5" y="-0.00952148" width="18" height="19" fill="black">
<rect fill="white" x="-0.5" y="-0.00952148" width="18" height="19"/>
<path fill-rule="evenodd" clip-rule="evenodd" d="M15.2504 4.87098C16.1331 5.27478 16.75 6.19665 16.75 7.26929V12.7633C16.75 15.653 14.5114 17.9957 11.75 17.9957H6.5C5.47499 17.9957 4.59406 17.3501 4.20819 16.4264L11.25 16.4259C13.3922 16.4259 15.1411 14.6637 15.2451 12.449L15.25 12.24L15.2504 4.87098ZM10.75 0.990479C12.1307 0.990479 13.25 2.16178 13.25 3.60666V11.7168C13.25 13.1617 12.1307 14.333 10.75 14.333H3C1.61929 14.333 0.5 13.1617 0.5 11.7168V3.60666C0.5 2.16178 1.61929 0.990479 3 0.990479H10.75Z"/>
</mask>
<path fill-rule="evenodd" clip-rule="evenodd" d="M15.2504 4.87098C16.1331 5.27478 16.75 6.19665 16.75 7.26929V12.7633C16.75 15.653 14.5114 17.9957 11.75 17.9957H6.5C5.47499 17.9957 4.59406 17.3501 4.20819 16.4264L11.25 16.4259C13.3922 16.4259 15.1411 14.6637 15.2451 12.449L15.25 12.24L15.2504 4.87098ZM10.75 0.990479C12.1307 0.990479 13.25 2.16178 13.25 3.60666V11.7168C13.25 13.1617 12.1307 14.333 10.75 14.333H3C1.61929 14.333 0.5 13.1617 0.5 11.7168V3.60666C0.5 2.16178 1.61929 0.990479 3 0.990479H10.75Z" fill="white"/>
<path d="M15.2504 4.87098L15.3336 4.6891L15.0504 4.55956L15.0504 4.87096L15.2504 4.87098ZM4.20819 16.4264L4.20818 16.2263L3.90791 16.2264L4.02364 16.5034L4.20819 16.4264ZM11.25 16.4259V16.2259H11.25L11.25 16.4259ZM15.2451 12.449L15.4449 12.4584L15.4451 12.4537L15.2451 12.449ZM15.25 12.24L15.45 12.2447V12.2401L15.25 12.24ZM15.1672 5.05285C15.9778 5.42365 16.55 6.27383 16.55 7.26929H16.95C16.95 6.11947 16.2885 5.1259 15.3336 4.6891L15.1672 5.05285ZM16.55 7.26929V12.7633H16.95V7.26929H16.55ZM16.55 12.7633C16.55 15.5512 14.3925 17.7957 11.75 17.7957V18.1957C14.6303 18.1957 16.95 15.7548 16.95 12.7633H16.55ZM11.75 17.7957H6.5V18.1957H11.75V17.7957ZM6.5 17.7957C5.56256 17.7957 4.75026 17.2052 4.39274 16.3493L4.02364 16.5034C4.43786 17.4951 5.38742 18.1957 6.5 18.1957V17.7957ZM4.2082 16.6264L11.25 16.6259L11.25 16.2259L4.20818 16.2263L4.2082 16.6264ZM11.25 16.6259C13.5074 16.6259 15.3363 14.7712 15.4449 12.4584L15.0453 12.4396C14.9459 14.5562 13.277 16.2259 11.25 16.2259V16.6259ZM15.4451 12.4537L15.4499 12.2447L15.0501 12.2354L15.0452 12.4443L15.4451 12.4537ZM15.45 12.2401L15.4504 4.87099L15.0504 4.87096L15.05 12.24L15.45 12.2401ZM10.75 1.19048C12.0118 1.19048 13.05 2.26358 13.05 3.60666H13.45C13.45 2.05999 12.2496 0.790479 10.75 0.790479V1.19048ZM13.05 3.60666V11.7168H13.45V3.60666H13.05ZM13.05 11.7168C13.05 13.0599 12.0118 14.133 10.75 14.133V14.533C12.2496 14.533 13.45 13.2635 13.45 11.7168H13.05ZM10.75 14.133H3V14.533H10.75V14.133ZM3 14.133C1.73821 14.133 0.7 13.0599 0.7 11.7168H0.3C0.3 13.2635 1.50037 14.533 3 14.533V14.133ZM0.7 11.7168V3.60666H0.3V11.7168H0.7ZM0.7 3.60666C0.7 2.26358 1.73821 1.19048 3 1.19048V0.790479C1.50037 0.790479 0.3 2.05999 0.3 3.60666H0.7ZM3 1.19048H10.75V0.790479H3V1.19048Z" fill="black" fill-opacity="0.2" mask="url(#path-1-outside-1_0_1922)"/>
</svg>
